<svg xmlns="http://www.w3.org/2000/svg" xmlns:xlink="http://www.w3.org/1999/xlink" width="145px" height="45px" viewBox="0 0 145 45" version="1.1">
    <title>logo</title>
    <g id="logo" stroke="none" stroke-width="1" fill="none" fill-rule="evenodd">
        <g id="dnsnet" transform="translate(-0.000000, -0.000000)" fill-rule="nonzero">
            <g id="icon" fill="#EC6607">
                <polygon id="Path" points="26.2 18.9 26.2 31.1 30.8 28.4 30.8 16.4 19.7 9.6 8.7 16.3 8.7 34.1 4.6 31.7 4.6 13.9 19.6 5.3 34.6 13.9 34.6 26.3 39.1 23.6 39.1 11.4 19.6 0 -1.13686838e-13 11.4 -1.13686838e-13 34.1 0.3 34.2 13.2 42.1 13.2 41.7 13.2 41.7 13.2 18.9 19.8 14.9"/>
                <polygon id="Path" points="39.5 33.5 39.5 28.3 22.1 38.7 22.1 21.5 19.7 20.2 17.5 21.5 17.5 44.2 19.8 45.3 19.8 45.3 19.8 45.4"/>
            </g>
            <g id="name" transform="translate(47.200000, 10.500000)">
                <path d="M82.9,0.4 L82.9,4.2 L87.9,4.2 L87.9,23.3 L92.5,23.3 L92.5,4.1 L97.5,4.1 L97.5,0.3 L82.9,0.4 L82.9,0.4 Z M68.8,0.4 L68.8,23.3 L81.9,23.3 L81.9,19.5 L73.4,19.5 L73.4,13.4 L81.1,13.4 L81.1,9.6 L73.4,9.6 L73.4,4.2 L81.6,4.2 L81.6,0.4 L68.8,0.4 L68.8,0.4 Z M50.4,0.4 L50.4,23.3 L54.6,23.3 L54.6,7.2 L54.7,7.2 L60.3,23.2 L65.5,23.2 L65.5,0.4 L61.3,0.4 L61.3,16.1 L61.2,16.1 L55.6,0.4 C55.7,0.4 50.4,0.4 50.4,0.4 Z M47.2,6.2 C47.2,2.1 45.2,0 41,0 C37,0 34.7,2.5 34.7,6.1 C34.7,14.4 45.8,10.5 45.8,17.3 C45.8,20.5 43.7,21.9 40.8,21.9 C37.8,21.9 36.2,19.9 36.2,17 L36.2,16.2 L34.1,16.2 L34.1,16.9 C34.1,21.4 36.4,23.7 40.7,23.7 C44.8,23.7 47.7,21.5 47.7,17 C47.7,9 36.6,12.7 36.6,5.9 C36.6,3.7 38.1,1.8 40.9,1.8 C43.7,1.8 45,3.5 45,6.4 C45.1,6.2 47.2,6.2 47.2,6.2 Z M18,23.3 L20.1,23.3 L20.1,3.3 L20.2,3.3 L29,23.3 L31.7,23.3 L31.7,0.4 L29.6,0.4 L29.6,20.4 L29.5,20.4 L20.7,0.4 L18,0.4 L18,23.3 L18,23.3 Z M2.8,2.1 L6.1,2.1 C10.6,2.1 12.5,4.3 12.5,11.9 C12.5,19.4 10.6,21.6 6.1,21.6 L2.8,21.6 L2.8,2.1 Z M0.7,23.3 L6.3,23.3 C13,23.3 14.6,19.3 14.6,11.9 C14.6,4.4 12.9,0.5 6.3,0.5 L0.7,0.5 L0.7,23.3 Z" id="Shape" fill="#224661"/>
                <path d="M96.9,33 L95.9,33 L95.9,34.3 L96.9,34.3 L96.9,33 Z M94.7,28.5 L92.8,28.5 L92.8,26.8 L91.9,26.8 L91.9,28.5 L91.1,28.5 L91.1,29.2 L91.9,29.2 L91.9,32.3 C91.9,33.1 92,33.7 92.2,34 C92.4,34.3 92.9,34.4 93.5,34.4 C93.7,34.4 94.2,34.3 94.7,34.2 L94.6,33.5 L93.5,33.6 C93.1,33.6 92.9,33.5 92.8,33.3 C92.7,33.1 92.6,32.6 92.6,32 L92.6,29.3 L94.5,29.3 L94.7,28.5 L94.7,28.5 L94.7,28.5 L94.7,28.5 Z M90.4,29.3 L90.4,28.6 L88.7,28.6 L88.7,28.1 C88.7,27.6 88.8,27.2 88.9,27 C89,26.8 89.2,26.8 89.6,26.8 C89.9,26.8 90.3,26.8 90.7,26.8 L90.7,26 L89.5,25.9 C88.9,25.9 88.5,26.1 88.3,26.3 C88.1,26.6 88,27.1 88,28 L88,28.5 L87.3,28.5 L87.3,29.2 L88,29.2 L88,34.3 L88.9,34.3 L88.9,29.2 L90.4,29.3 L90.4,29.3 L90.4,29.3 Z M81.8,29.6 L82,29.5 C82.2,29.4 82.3,29.3 82.7,29.3 C82.9,29.2 83.3,29.2 83.5,29.2 C84,29.2 84.4,29.4 84.6,29.6 C84.8,29.9 84.8,30.4 84.8,31.3 L84.8,34.4 L85.7,34.4 L85.7,31.3 C85.7,30.2 85.5,29.5 85.3,29.1 C85.1,28.7 84.5,28.4 83.7,28.4 C83.1,28.4 82.5,28.6 81.9,28.9 L81.9,28.5 L81,28.5 L81,34.3 L81.9,34.3 L81.9,29.7 L81.8,29.6 L81.8,29.6 Z M78.1,33.3 L77.9,33.4 C77.7,33.5 77.6,33.6 77.2,33.6 C77,33.7 76.6,33.7 76.4,33.7 C75.9,33.7 75.5,33.5 75.4,33.3 C75.2,33.1 75.2,32.5 75.2,31.6 L75.2,28.6 L74.3,28.6 L74.3,31.6 C74.3,32.7 74.5,33.4 74.7,33.8 C74.9,34.2 75.5,34.4 76.4,34.4 C77,34.4 77.6,34.2 78.1,33.9 L78.1,34.3 L79,34.3 L79,28.5 L78.1,28.5 L78.1,33.3 L78.1,33.3 L78.1,33.3 Z M69.4,31.7 L70.3,31.7 L72.1,34.3 L73.1,34.3 L71,31.2 L73,28.6 L72,28.6 L70.3,30.9 L69.4,31 L69.4,26.1 L68.5,26.1 L68.5,34.4 L69.4,34.4 L69.4,31.7 L69.4,31.7 Z M65.8,33.3 L65.6,33.4 C65.4,33.5 65.3,33.6 64.9,33.6 C64.7,33.7 64.3,33.7 64.1,33.7 C63.6,33.7 63.2,33.5 63.1,33.3 C62.9,33.1 62.9,32.5 62.9,31.6 L62.9,28.6 L62,28.6 L62,31.6 C62,32.7 62.2,33.4 62.4,33.8 C62.6,34.2 63.2,34.4 64.1,34.4 C64.7,34.4 65.3,34.2 65.8,33.9 L65.8,34.3 L66.7,34.3 L66.7,28.5 L65.8,28.5 L65.8,33.3 L65.8,33.3 L65.8,33.3 Z M59.6,27.1 L59.6,27.3 L55.3,33.3 L55.3,34.3 L60.7,34.3 L60.7,33.5 L56.4,33.5 L56.4,33.3 L60.7,27.3 L60.7,26.2 L55.3,26.2 L55.3,26.9 L59.6,26.9 L59.6,27.1 L59.6,27.1 Z M51.1,29.4 L51.1,28.7 L50.8,28.6 C50.1,28.5 49.5,28.4 49,28.4 C48.4,28.4 47.8,28.6 47.4,28.8 C47,29 46.8,29.5 46.8,30 C46.8,30.5 47,30.9 47.2,31.2 C47.5,31.4 48,31.5 48.7,31.7 C49.3,31.9 49.9,31.9 50.1,32 C50.3,32.1 50.4,32.3 50.4,32.7 C50.4,33.1 50.3,33.3 50.1,33.4 C49.9,33.6 49.5,33.6 49,33.6 C48.5,33.6 47.8,33.5 46.9,33.4 L46.8,34.1 L47.1,34.2 C47.8,34.3 48.3,34.4 48.8,34.4 C49.5,34.4 50.1,34.2 50.5,34 C50.9,33.8 51.1,33.3 51.1,32.7 C51.1,32.1 50.9,31.7 50.7,31.5 C50.4,31.3 49.9,31.1 49.2,31 C48.5,30.9 48,30.8 47.8,30.7 C47.6,30.6 47.5,30.4 47.5,30.1 C47.5,29.5 47.9,29.2 48.8,29.2 C49.5,29.2 50.2,29.3 51.1,29.4 M45.4,29.4 L45.4,28.7 L45.1,28.6 C44.4,28.5 43.8,28.4 43.3,28.4 C42.7,28.4 42.1,28.6 41.7,28.8 C41.3,29 41.1,29.5 41.1,30 C41.1,30.5 41.3,30.9 41.5,31.2 C41.8,31.4 42.3,31.5 43,31.7 C43.7,31.8 44.2,31.9 44.4,32 C44.6,32.1 44.7,32.3 44.7,32.7 C44.7,33.1 44.6,33.3 44.4,33.4 C44.2,33.6 43.8,33.6 43.3,33.6 C42.8,33.6 42.1,33.5 41.2,33.4 L41.1,34.1 L41.4,34.2 C42.1,34.3 42.6,34.4 43.1,34.4 C43.8,34.4 44.4,34.2 44.8,34 C45.2,33.8 45.4,33.3 45.4,32.7 C45.4,32.1 45.2,31.7 45,31.5 C44.7,31.3 44.2,31.1 43.5,31 C42.8,30.9 42.3,30.8 42.1,30.7 C41.9,30.6 41.8,30.4 41.8,30.1 C41.8,29.5 42.2,29.2 43.1,29.2 C43.8,29.2 44.6,29.3 45.4,29.4 M38.7,33.3 L38.5,33.4 C38.3,33.5 38.2,33.6 37.8,33.6 C37.6,33.7 37.2,33.7 37,33.7 C36.5,33.7 36.1,33.5 36,33.3 C35.8,33.1 35.8,32.5 35.8,31.6 L35.8,28.6 L35,28.6 L35,31.6 C35,32.7 35.2,33.4 35.4,33.8 C35.6,34.2 36.2,34.4 37.1,34.4 C37.7,34.4 38.3,34.2 38.8,33.9 L38.8,34.3 L39.7,34.3 L39.7,28.5 L38.8,28.5 L38.7,33.3 L38.7,33.3 L38.7,33.3 Z M33,26.1 L32.1,26.1 L32.1,34.4 L33,34.4 L33,26.1 Z M26.3,29.5 L26.5,29.4 C27,29.2 27.5,29.2 28,29.2 C28.5,29.2 28.9,29.4 29.1,29.6 C29.3,29.9 29.3,30.4 29.3,31.3 L29.3,34.4 L30.2,34.4 L30.2,31.3 C30.2,30.2 30,29.5 29.8,29.1 C29.6,28.7 29,28.4 28.2,28.4 C27.6,28.4 27,28.6 26.4,28.8 L26.4,26 L25.5,26 L25.5,34.3 L26.4,34.3 L26.4,29.6 L26.3,29.5 L26.3,29.5 Z M20.4,29.1 C20,29.5 19.8,30.3 19.8,31.4 C19.8,32.5 20,33.3 20.3,33.7 C20.6,34.2 21.3,34.4 22.2,34.4 C22.5,34.4 23.1,34.3 23.9,34.2 L23.9,33.5 L22.5,33.6 C21.8,33.6 21.3,33.4 21.1,33.1 C20.9,32.8 20.8,32.2 20.8,31.4 C20.8,30.6 20.9,30 21.1,29.7 C21.3,29.4 21.8,29.2 22.5,29.2 C22.8,29.2 23.2,29.2 23.9,29.3 L23.9,28.6 L23.7,28.6 C23,28.5 22.6,28.4 22.4,28.4 C21.4,28.5 20.8,28.6 20.4,29.1 M18.4,29.4 L18.4,28.7 L18.1,28.6 C17.4,28.5 16.8,28.4 16.3,28.4 C15.7,28.4 15.1,28.6 14.7,28.8 C14.3,29 14.1,29.5 14.1,30 C14.1,30.5 14.3,30.9 14.5,31.2 C14.7,31.4 15.3,31.5 16,31.7 C16.7,31.8 17.2,31.9 17.4,32 C17.6,32.1 17.7,32.3 17.7,32.7 C17.7,33.1 17.6,33.3 17.4,33.4 C17.2,33.6 16.8,33.6 16.3,33.6 C15.8,33.6 15.1,33.5 14.2,33.4 L14.1,34.1 L14.4,34.2 C15.1,34.3 15.6,34.4 16.1,34.4 C16.8,34.4 17.4,34.2 17.8,34 C18.2,33.8 18.4,33.3 18.4,32.7 C18.4,32.1 18.2,31.7 18,31.5 C17.7,31.3 17.2,31.1 16.5,31 C15.8,30.9 15.3,30.8 15.1,30.7 C14.9,30.6 14.9,30.5 14.9,30.1 C14.9,29.5 15.3,29.2 16.2,29.2 C16.8,29.2 17.5,29.3 18.4,29.4 M8.8,29.6 L9,29.5 C9.2,29.4 9.3,29.3 9.7,29.3 C9.9,29.2 10.3,29.2 10.5,29.2 C11,29.2 11.4,29.4 11.6,29.6 C11.8,29.9 11.8,30.4 11.8,31.3 L11.8,34.4 L12.7,34.4 L12.7,31.3 C12.7,30.2 12.5,29.5 12.3,29.1 C12.1,28.7 11.5,28.4 10.7,28.4 C10.1,28.4 9.5,28.6 8.9,28.9 L8.9,28.5 L8,28.5 L8,34.3 L8.9,34.3 L8.9,29.7 L8.8,29.6 L8.8,29.6 Z M3.5,27 L4.7,31.4 L1.6,31.4 L2.8,27 L3.5,27 Z M0.9,34.3 L1.5,32.2 L5.1,32.2 L5.7,34.3 L6.6,34.3 L4.3,26.3 L2.3,26.3 L0,34.3 L0.9,34.3 L0.9,34.3 Z" id="Shape" fill="#EC6607"/>
            </g>
        </g>
    </g>
</svg>